Description

Sinopse e detalhes

Johnny Blaze (Nicolas Cage) trabalha como dublê e piloto de motocicleta. Há muito tempo ele fez um pacto com Mefisto (Peter Fonda) para proteger as duas pessoas que mais amava: seu pai, Barton (Brett Cullen), e sua namorada de adolescência, Roxanne Simpson (Eva Mendes). Em troca Johnny se transforma à noite no Motoqueiro Fantasma, o justiceiro de alguns demônios bastante cruéis. Forçado a obedecer as ordens de Mefisto, Johnny decide enfrentá-lo de forma a usar sua maldição para proteger pessoas inocentes.

Format : Matroska
Format version : Version 2
File size : 762 MiB
Duration : 1h 50mn
Overall bit rate : 967 Kbps
Encoded date : UTC 2013-06-03 21:47:44
Writing application : mkvmerge v5.8.0 ('No Sleep / Pillow') built on Sep 2 2012 15:37:04
Writing library : libebml v1.2.3 + libmatroska v1.3.0

Video
ID : 1
Format : AVC
Format/Info : Advanced Video Codec
Format profile : High@L4.1
Format settings, CABAC : Yes
Format settings, ReFrames : 4 frames
Muxing mode : Header stripping
Codec ID : V_MPEG4/ISO/AVC
Duration : 1h 50mn
Bit rate : 500 Kbps
Width : 720 pixels
Height : 288 pixels
Display aspect ratio : 2.500
Frame rate mode : Constant
Frame rate : 23.976 fps
Color space : YUV
Chroma subsampling : 4:2:0
Bit depth : 8 bits
Scan type : Progressive
Bits/(Pixel*Frame) : 0.100
Stream size : 394 MiB (52%)
Title : O Motoqueiro Fantasma
Writing library : x264 core 130 r2273 b3065e6
Encoding settings : cabac=1 / ref=3 / deblock=1:0:0 / analyse=0x3:0x113 / me=hex / subme=7 / psy=1 / psy_rd=1.00:0.00 / mixed_ref=1 / me_range=16 / chroma_me=1 / trellis=1 / 8x8dct=1 / cqm=0 / deadzone=21,11 / fast_pskip=1 / chroma_qp_offset=-2 / threads=3 / lookahead_threads=1 / sliced_threads=0 / nr=0 / decimate=1 / interlaced=0 / bluray_compat=0 / constrained_intra=0 / bframes=3 / b_pyramid=2 / b_adapt=1 / b_bias=0 / direct=1 / weightb=1 / open_gop=0 / weightp=2 / keyint=240 / keyint_min=23 / scenecut=40 / intra_refresh=0 / rc_lookahead=40 / rc=crf / mbtree=1 / crf=23.0 / qcomp=0.60 / qpmin=0 / qpmax=69 / qpstep=4 / vbv_maxrate=24000 / vbv_bufsize=24000 / crf_max=0.0 / nal_hrd=none / ip_ratio=1.40 / aq=1:1.00
Language : Portuguese
Default : Yes
Forced : No

Audio
ID : 2
Format : AC-3
Format/Info : Audio Coding 3
Mode extension : CM (complete main)
Format settings, Endianness : Big
Muxing mode : Header stripping
Codec ID : A_AC3
Duration : 1h 50mn
Bit rate mode : Constant
Bit rate : 448 Kbps
Channel(s) : 6 channels
Channel positions : Front: L C R, Side: L R, LFE
Sampling rate : 48.0 KHz
Bit depth : 16 bits
Compression mode : Lossy
Stream size : 353 MiB (46%)
Language : Portuguese
Default : Yes
Forced : No

Text #1
ID : 3
Format : VobSub
Muxing mode : zlib
Codec ID : S_VOBSUB
Codec ID/Info : The same subtitle format used on DVDs
Language : English
Default : No
Forced : No

Text #2
ID : 4
Format : VobSub
Muxing mode : zlib
Codec ID : S_VOBSUB
Codec ID/Info : The same subtitle format used on DVDs
Language : Spanish
Default : No
Forced : No

Text #3
ID : 5
Format : VobSub
Muxing mode : zlib
Codec ID : S_VOBSUB
Codec ID/Info : The same subtitle format used on DVDs
Language : Portuguese
Default : No
Forced : No

Text #4
ID : 6
Format : VobSub
Muxing mode : zlib
Codec ID : S_VOBSUB
Codec ID/Info : The same subtitle format used on DVDs
Language : Spanish
Default : No
Forced : No

Text #5
ID : 7
Format : VobSub
Muxing mode : zlib
Codec ID : S_VOBSUB
Codec ID/Info : The same subtitle format used on DVDs
Language : Portuguese
Default : No
Forced : No

Text #6
ID : 8
Format : VobSub
Muxing mode : zlib
Codec ID : S_VOBSUB
Codec ID/Info : The same subtitle format used on DVDs
Language : Spanish
Default : No
Forced : No

Text #7
ID : 9
Format : VobSub
Muxing mode : zlib
Codec ID : S_VOBSUB
Codec ID/Info : The same subtitle format used on DVDs
Language : Portuguese
Default : No
Forced : No

Text #8
ID : 10
Format : UTF-8
Codec ID : S_TEXT/UTF8
Codec ID/Info : UTF-8 Plain Text
Title : Credito
Language : Portuguese
Default : Yes
Forced : No

Menu
00:00:00.000 : en:Chapter 01
00:03:08.667 : en:Chapter 02
00:07:00.201 : en:Chapter 03
00:13:18.802 : en:Chapter 04
00:18:22.036 : en:Chapter 05
00:23:05.303 : en:Chapter 06
00:24:58.370 : en:Chapter 07
00:28:41.370 : en:Chapter 08
00:34:39.304 : en:Chapter 09
00:37:22.704 : en:Chapter 10
00:41:15.638 : en:Chapter 11
00:46:21.339 : en:Chapter 12
00:49:35.673 : en:Chapter 13
00:52:59.007 : en:Chapter 14
00:58:35.641 : en:Chapter 15
01:05:22.875 : en:Chapter 16
01:09:59.509 : en:Chapter 17
01:14:14.176 : en:Chapter 18
01:16:44.343 : en:Chapter 19
01:18:33.343 : en:Chapter 20
01:20:48.844 : en:Chapter 21
01:22:26.844 : en:Chapter 22
01:24:37.778 : en:Chapter 23
01:29:06.045 : en:Chapter 24
01:32:29.712 : en:Chapter 25
01:34:20.680 : en:Chapter 26
01:36:22.481 : en:Chapter 27
01:38:12.182 : en:Chapter 28